<svg xmlns="http://www.w3.org/2000/svg" fill="none" viewBox="103 474 874.72 132.4">
<!-- <rect width="1080" height="1080" fill="#FAFAFA"/> -->
<path d="M135 474L135 490.589C116.08 499.577 103 518.861 103 541.2C103 572.128 128.072 597.2 159 597.2C189.928 597.2 215 572.128 215 541.2C215 518.861 201.92 499.577 183 490.589V474H167V502L166.998 502C185.257 505.705 199 521.848 199 541.2C199 563.292 181.091 581.2 159 581.2C136.909 581.2 119 563.292 119 541.2C119 521.848 132.743 505.705 151.002 502H151V474H135Z" fill="#6F02F7"/>
<path fill-rule="evenodd" clip-rule="evenodd" d="M183 541.2C183 554.455 172.255 565.2 159 565.2C145.745 565.2 135 554.455 135 541.2C135 527.945 145.745 517.2 159 517.2C172.255 517.2 183 527.945 183 541.2ZM167 541.2C167 545.619 163.418 549.2 159 549.2C154.582 549.2 151 545.619 151 541.2C151 536.782 154.582 533.2 159 533.2C163.418 533.2 167 536.782 167 541.2Z" fill="#6F02F7"/>
<path d="M920.324 606.26C918.084 606.26 915.564 605.84 912.764 605C910.057 604.16 907.444 603.087 904.924 601.78L910.804 589.04C912.577 589.88 914.21 590.533 915.704 591C917.197 591.56 918.41 591.84 919.344 591.84C921.584 591.84 923.45 591.233 924.944 590.02C926.53 588.9 927.79 587.22 928.724 584.98L936.984 565.66L960.644 506.58H977.724L945.244 584C943.284 588.48 941.277 592.4 939.224 595.76C937.264 599.12 934.79 601.687 931.804 603.46C928.817 605.327 924.99 606.26 920.324 606.26ZM932.784 576.58L901.424 506.58H918.504L942.864 565.52L947.904 576.58H932.784Z" fill="#0D0D0D"/>
<path d="M848.965 606.4C844.019 606.4 839.539 605.98 835.525 605.14C831.605 604.3 828.292 603.32 825.585 602.2C822.879 601.08 820.779 600.007 819.285 598.98L825.305 586.38C826.612 587.033 828.339 587.827 830.485 588.76C832.725 589.787 835.339 590.673 838.325 591.42C841.312 592.167 844.672 592.54 848.405 592.54C852.419 592.54 856.012 591.7 859.185 590.02C862.359 588.433 864.832 585.96 866.605 582.6C868.379 579.24 869.265 574.947 869.265 569.72V506.58H884.945V569.3C884.945 577.233 883.452 583.953 880.465 589.46C877.479 595.06 873.279 599.26 867.865 602.06C862.452 604.953 856.152 606.4 848.965 606.4ZM846.585 575.18C840.239 575.18 834.685 573.733 829.925 570.84C825.259 567.947 821.572 563.933 818.865 558.8C816.252 553.573 814.945 547.553 814.945 540.74C814.945 533.46 816.252 527.16 818.865 521.84C821.572 516.52 825.259 512.367 829.925 509.38C834.685 506.393 840.239 504.9 846.585 504.9C852.279 504.9 857.225 506.393 861.425 509.38C865.719 512.367 869.032 516.567 871.365 521.98C873.699 527.3 874.865 533.6 874.865 540.88C874.865 547.787 873.699 553.807 871.365 558.94C869.032 564.073 865.719 568.087 861.425 570.98C857.225 573.78 852.279 575.18 846.585 575.18ZM850.925 561.88C854.472 561.88 857.552 560.947 860.165 559.08C862.872 557.213 864.972 554.693 866.465 551.52C867.959 548.253 868.705 544.52 868.705 540.32C868.705 536.027 867.959 532.293 866.465 529.12C864.972 525.853 862.872 523.333 860.165 521.56C857.459 519.693 854.332 518.76 850.785 518.76C847.052 518.76 843.739 519.693 840.845 521.56C838.045 523.333 835.805 525.853 834.125 529.12C832.539 532.293 831.745 536.027 831.745 540.32C831.745 544.52 832.539 548.253 834.125 551.52C835.805 554.693 838.092 557.213 840.985 559.08C843.879 560.947 847.192 561.88 850.925 561.88Z" fill="#0D0D0D"/>
<path d="M762.718 578.26C755.718 578.26 749.464 576.72 743.958 573.64C738.544 570.467 734.298 566.127 731.218 560.62C728.138 555.113 726.598 548.767 726.598 541.58C726.598 534.393 728.091 528.047 731.078 522.54C734.158 517.033 738.404 512.74 743.818 509.66C749.231 506.487 755.438 504.9 762.438 504.9C769.438 504.9 775.644 506.487 781.058 509.66C786.471 512.74 790.671 517.033 793.658 522.54C796.738 528.047 798.278 534.393 798.278 541.58C798.278 548.767 796.784 555.113 793.798 560.62C790.811 566.127 786.611 570.467 781.198 573.64C775.784 576.72 769.624 578.26 762.718 578.26ZM762.718 563.84C766.544 563.84 769.951 562.907 772.938 561.04C775.924 559.08 778.258 556.467 779.938 553.2C781.618 549.84 782.458 545.967 782.458 541.58C782.458 537.193 781.571 533.367 779.798 530.1C778.118 526.74 775.784 524.127 772.798 522.26C769.811 520.3 766.358 519.32 762.438 519.32C758.518 519.32 755.064 520.253 752.078 522.12C749.091 523.987 746.758 526.6 745.078 529.96C743.398 533.32 742.558 537.193 742.558 541.58C742.558 545.967 743.398 549.84 745.078 553.2C746.851 556.467 749.231 559.08 752.218 561.04C755.298 562.907 758.798 563.84 762.718 563.84Z" fill="#0D0D0D"/>
<path d="M690.432 576.58V478.58H706.112V576.58H690.432Z" fill="#0D0D0D"/>
<path d="M634.284 578.26C627.284 578.26 621.031 576.72 615.524 573.64C610.111 570.467 605.864 566.127 602.784 560.62C599.704 555.113 598.164 548.767 598.164 541.58C598.164 534.393 599.657 528.047 602.644 522.54C605.724 517.033 609.971 512.74 615.384 509.66C620.797 506.487 627.004 504.9 634.004 504.9C641.004 504.9 647.211 506.487 652.624 509.66C658.037 512.74 662.237 517.033 665.224 522.54C668.304 528.047 669.844 534.393 669.844 541.58C669.844 548.767 668.351 555.113 665.364 560.62C662.377 566.127 658.177 570.467 652.764 573.64C647.351 576.72 641.191 578.26 634.284 578.26ZM634.284 563.84C638.111 563.84 641.517 562.907 644.504 561.04C647.491 559.08 649.824 556.467 651.504 553.2C653.184 549.84 654.024 545.967 654.024 541.58C654.024 537.193 653.137 533.367 651.364 530.1C649.684 526.74 647.351 524.127 644.364 522.26C641.377 520.3 637.924 519.32 634.004 519.32C630.084 519.32 626.631 520.253 623.644 522.12C620.657 523.987 618.324 526.6 616.644 529.96C614.964 533.32 614.124 537.193 614.124 541.58C614.124 545.967 614.964 549.84 616.644 553.2C618.417 556.467 620.797 559.08 623.784 561.04C626.864 562.907 630.364 563.84 634.284 563.84Z" fill="#0D0D0D"/>
<path d="M568.94 578.26C561.567 578.26 555.92 576.44 552 572.8C548.173 569.067 546.26 563.747 546.26 556.84V484.74H561.8V553.9C561.8 557.167 562.547 559.64 564.04 561.32C565.627 563 567.913 563.84 570.9 563.84C571.833 563.84 572.86 563.654 573.98 563.28C575.1 562.907 576.36 562.207 577.76 561.18L583.5 573.08C581.073 574.76 578.647 576.02 576.22 576.86C573.793 577.794 571.367 578.26 568.94 578.26ZM534.64 520.02V506.58H580.7V520.02H534.64Z" fill="#0D0D0D"/>
<path d="M487.35 576.58V499.16C487.35 491.787 489.17 486.14 492.81 482.22C496.543 478.207 502.143 476.2 509.61 476.2C512.036 476.2 514.603 476.62 517.31 477.46C520.11 478.207 522.77 479.234 525.29 480.54L519.55 492.16C517.776 491.32 516.19 490.714 514.79 490.34C513.483 489.967 512.316 489.78 511.29 489.78C508.49 489.78 506.39 490.714 504.99 492.58C503.683 494.354 503.03 497.294 503.03 501.4V576.58H487.35ZM475.31 519.46V506.58H521.37V519.46H475.31Z" fill="#0D0D0D"/>
<path d="M442.632 576.58L441.932 563.42V540.6C441.932 535.84 441.418 531.873 440.392 528.7C439.458 525.433 437.872 522.96 435.632 521.28C433.485 519.507 430.592 518.62 426.952 518.62C423.592 518.62 420.652 519.32 418.132 520.72C415.612 522.12 413.465 524.313 411.692 527.3L397.972 522.26C399.465 519.18 401.425 516.333 403.852 513.72C406.372 511.013 409.498 508.867 413.232 507.28C417.058 505.693 421.632 504.9 426.952 504.9C433.765 504.9 439.458 506.253 444.032 508.96C448.605 511.573 451.965 515.353 454.112 520.3C456.352 525.247 457.472 531.22 457.472 538.22L457.052 576.58H442.632ZM422.472 578.26C414.072 578.26 407.538 576.393 402.872 572.66C398.298 568.927 396.012 563.653 396.012 556.84C396.012 549.56 398.438 544.007 403.292 540.18C408.238 536.353 415.098 534.44 423.872 534.44H442.632V546.48H428.912C422.658 546.48 418.272 547.367 415.752 549.14C413.232 550.82 411.972 553.247 411.972 556.42C411.972 559.127 413.045 561.273 415.192 562.86C417.432 564.353 420.512 565.1 424.432 565.1C427.978 565.1 431.058 564.307 433.672 562.72C436.285 561.133 438.292 559.033 439.692 556.42C441.185 553.807 441.932 550.867 441.932 547.6H446.552C446.552 557.12 444.638 564.633 440.812 570.14C436.985 575.553 430.872 578.26 422.472 578.26Z" fill="#0D0D0D"/>
<path d="M352.432 539.34C352.432 531.78 353.879 525.574 356.772 520.72C359.666 515.867 363.399 512.274 367.972 509.94C372.639 507.514 377.492 506.3 382.532 506.3V521.28C378.239 521.28 374.179 521.887 370.352 523.1C366.619 524.22 363.586 526.087 361.252 528.7C358.919 531.314 357.752 534.767 357.752 539.06L352.432 539.34ZM342.072 576.58V506.58H357.752V576.58H342.072Z" fill="#0D0D0D"/>
<path d="M291.68 578.26C284.493 578.26 278.147 576.72 272.64 573.64C267.133 570.467 262.793 566.127 259.62 560.62C256.54 555.113 255 548.767 255 541.58C255 534.393 256.54 528.047 259.62 522.54C262.793 517.033 267.087 512.74 272.5 509.66C278.007 506.487 284.307 504.9 291.4 504.9C298.307 504.9 304.56 506.58 310.16 509.94C315.76 513.207 319.913 517.92 322.62 524.08L308.06 529.68C306.567 526.6 304.28 524.127 301.2 522.26C298.12 520.393 294.62 519.46 290.7 519.46C286.873 519.46 283.467 520.44 280.48 522.4C277.493 524.267 275.16 526.88 273.48 530.24C271.8 533.507 270.96 537.287 270.96 541.58C270.96 545.873 271.8 549.7 273.48 553.06C275.253 556.327 277.633 558.94 280.62 560.9C283.7 562.767 287.153 563.7 290.98 563.7C294.9 563.7 298.4 562.72 301.48 560.76C304.56 558.707 306.847 555.953 308.34 552.5L322.9 558.1C320.193 564.447 316.04 569.393 310.44 572.94C304.933 576.487 298.68 578.26 291.68 578.26Z" fill="#0D0D0D"/>
</svg>